<svg width="16" height="16" viewBox="0 0 24 24" fill="none" xmlns="http://www.w3.org/2000/svg">
  <path d="M10.325 4.317C10.751 2.561 13.249 2.561 13.675 4.317C13.896 5.226 14.948 5.705 15.752 5.214C17.295 4.274 19.062 6.041 18.122 7.584C17.631 8.388 18.11 9.44 19.019 9.661C20.775 10.087 20.775 12.585 19.019 13.011C18.11 13.232 17.631 14.284 18.122 15.088C19.062 16.631 17.295 18.398 15.752 17.458C14.948 16.967 13.896 17.446 13.675 18.355C13.249 20.111 10.751 20.111 10.325 18.355C10.104 17.446 9.052 16.967 8.248 17.458C6.705 18.398 4.938 16.631 5.878 15.088C6.369 14.284 5.89 13.232 4.981 13.011C3.225 12.585 3.225 10.087 4.981 9.661C5.89 9.44 6.369 8.388 5.878 7.584C4.938 6.041 6.705 4.274 8.248 5.214C9.052 5.705 10.104 5.226 10.325 4.317Z" stroke="#C5C5C5" stroke-width="1.5" stroke-linecap="round" stroke-linejoin="round"/>
  <path d="M9 12C9 10.3431 10.3431 9 12 9C13.6569 9 15 10.3431 15 12C15 13.6569 13.6569 15 12 15C10.3431 15 9 13.6569 9 12Z" stroke="#C5C5C5" stroke-width="1.5"/>
</svg>
